<svg width="600" height="400" style="padding: 0px; margin: 0px;"><rect class="panel" transform="translate(0,0)" width="600" height="70" style="fill: rgb(204, 204, 204);"></rect><rect class="panel" transform="translate(0,69)" width="60" height="262" style="fill: rgb(204, 204, 204);"></rect><rect class="panel" transform="translate(540,69)" width="60" height="262" style="fill: rgb(204, 204, 204);"></rect><rect class="panel" transform="translate(0,330)" width="600" height="70" style="fill: rgb(204, 204, 204);"></rect><text x="50%" y="29.4" text-anchor="middle" style="font-size: 24px; fill: rgb(34, 34, 34);">Main Chart Title</text><text x="50%" y="52.5" text-anchor="middle" style="font-size: 14px; fill: rgb(34, 34, 34);">Subtitle</text><g class="x-axis axis" transform="translate(60, 330)" fill="none" font-size="10" font-family="sans-serif" text-anchor="middle" style="stroke: rgb(0, 0, 0); opacity: 0.4;"><path class="domain" stroke="#000" d="M0.5,6V0.5H480.5V6"></path><g class="tick" opacity="1" transform="translate(30.5,0)"><line stroke="#000" y2="6"></line><text fill="#000" y="9" dy="0.71em">Wed 05</text></g><g class="tick" opacity="1" transform="translate(90.5,0)"><line stroke="#000" y2="6"></line><text fill="#000" y="9" dy="0.71em">Fri 07</text></g><g class="tick" opacity="1" transform="translate(150.5,0)"><line stroke="#000" y2="6"></line><text fill="#000" y="9" dy="0.71em">Feb 09</text></g><g class="tick" opacity="1" transform="translate(210.5,0)"><line stroke="#000" y2="6"></line><text fill="#000" y="9" dy="0.71em">Tue 11</text></g><g class="tick" opacity="1" transform="translate(270.5,0)"><line stroke="#000" y2="6"></line><text fill="#000" y="9" dy="0.71em">Thu 13</text></g><g class="tick" opacity="1" transform="translate(330.5,0)"><line stroke="#000" y2="6"></line><text fill="#000" y="9" dy="0.71em">Sat 15</text></g><g class="tick" opacity="1" transform="translate(390.5,0)"><line stroke="#000" y2="6"></line><text fill="#000" y="9" dy="0.71em">Mon 17</text></g><g class="tick" opacity="1" transform="translate(450.5,0)"><line stroke="#000" y2="6"></line><text fill="#000" y="9" dy="0.71em">Wed 19</text></g></g><line class="horizontalGrid" x1="60" x2="540" stroke="#444" stroke-width="1.0" opacity="1" y1="239.57183817247278" y2="239.57183817247278" transform="translate(0, 70)"></line><line class="horizontalGrid" x1="60" x2="540" stroke="#444" stroke-width="1.0" opacity="1" y1="203.3388834990985" y2="203.3388834990985" transform="translate(0, 70)"></line><line class="horizontalGrid" x1="60" x2="540" stroke="#444" stroke-width="1.0" opacity="1" y1="167.10592882572422" y2="167.10592882572422" transform="translate(0, 70)"></line><line class="horizontalGrid" x1="60" x2="540" stroke="#444" stroke-width="1.0" opacity="1" y1="130.8729741523499" y2="130.8729741523499" transform="translate(0, 70)"></line><line class="horizontalGrid" x1="60" x2="540" stroke="#444" stroke-width="1.0" opacity="1" y1="94.64001947897563" y2="94.64001947897563" transform="translate(0, 70)"></line><line class="horizontalGrid" x1="60" x2="540" stroke="#444" stroke-width="1.0" opacity="1" y1="58.40706480560132" y2="58.40706480560132" transform="translate(0, 70)"></line><line class="horizontalGrid" x1="60" x2="540" stroke="#444" stroke-width="1.0" opacity="1" y1="22.174110132227014" y2="22.174110132227014" transform="translate(0, 70)"></line><g class="y-axis axis" transform="translate(60, 70)" fill="none" font-size="10" font-family="sans-serif" text-anchor="end" style="stroke: rgb(0, 0, 0); opacity: 0.4;"><path class="domain" stroke="#000" d="M-6,260.5H0.5V0.5H-6"></path><g class="tick" opacity="1" transform="translate(0,240.07183817247278)"><line stroke="#000" x2="-6"></line><text fill="#000" x="-9" dy="0.32em">94</text></g><g class="tick" opacity="1" transform="translate(0,203.8388834990985)"><line stroke="#000" x2="-6"></line><text fill="#000" x="-9" dy="0.32em">96</text></g><g class="tick" opacity="1" transform="translate(0,167.60592882572422)"><line stroke="#000" x2="-6"></line><text fill="#000" x="-9" dy="0.32em">98</text></g><g class="tick" opacity="1" transform="translate(0,131.3729741523499)"><line stroke="#000" x2="-6"></line><text fill="#000" x="-9" dy="0.32em">100</text></g><g class="tick" opacity="1" transform="translate(0,95.14001947897563)"><line stroke="#000" x2="-6"></line><text fill="#000" x="-9" dy="0.32em">102</text></g><g class="tick" opacity="1" transform="translate(0,58.90706480560132)"><line stroke="#000" x2="-6"></line><text fill="#000" x="-9" dy="0.32em">104</text></g><g class="tick" opacity="1" transform="translate(0,22.674110132227014)"><line stroke="#000" x2="-6"></line><text fill="#000" x="-9" dy="0.32em">106</text></g></g><g class="y-axis axis" transform="translate(540, 70)" fill="none" font-size="10" font-family="sans-serif" text-anchor="start" style="stroke: rgb(0, 0, 0); opacity: 0.4;"><path class="domain" stroke="#000" d="M6,260.5H0.5V0.5H6"></path><g class="tick" opacity="1" transform="translate(0,240.07183817247278)"><line stroke="#000" x2="6"></line><text fill="#000" x="9" dy="0.32em">94</text></g><g class="tick" opacity="1" transform="translate(0,203.8388834990985)"><line stroke="#000" x2="6"></line><text fill="#000" x="9" dy="0.32em">96</text></g><g class="tick" opacity="1" transform="translate(0,167.60592882572422)"><line stroke="#000" x2="6"></line><text fill="#000" x="9" dy="0.32em">98</text></g><g class="tick" opacity="1" transform="translate(0,131.3729741523499)"><line stroke="#000" x2="6"></line><text fill="#000" x="9" dy="0.32em">100</text></g><g class="tick" opacity="1" transform="translate(0,95.14001947897563)"><line stroke="#000" x2="6"></line><text fill="#000" x="9" dy="0.32em">102</text></g><g class="tick" opacity="1" transform="translate(0,58.90706480560132)"><line stroke="#000" x2="6"></line><text fill="#000" x="9" dy="0.32em">104</text></g><g class="tick" opacity="1" transform="translate(0,22.674110132227014)"><line stroke="#000" x2="6"></line><text fill="#000" x="9" dy="0.32em">106</text></g></g><line class="verticalGrid" y1="70" y2="330" stroke="#444" stroke-width="1.0" opacity="1" x1="30" x2="30" transform="translate(60.5, 0)"></line><line class="verticalGrid" y1="70" y2="330" stroke="#444" stroke-width="1.0" opacity="1" x1="90" x2="90" transform="translate(60.5, 0)"></line><line class="verticalGrid" y1="70" y2="330" stroke="#444" stroke-width="1.0" opacity="1" x1="150" x2="150" transform="translate(60.5, 0)"></line><line class="verticalGrid" y1="70" y2="330" stroke="#444" stroke-width="1.0" opacity="1" x1="210" x2="210" transform="translate(60.5, 0)"></line><line class="verticalGrid" y1="70" y2="330" stroke="#444" stroke-width="1.0" opacity="1" x1="270" x2="270" transform="translate(60.5, 0)"></line><line class="verticalGrid" y1="70" y2="330" stroke="#444" stroke-width="1.0" opacity="1" x1="330" x2="330" transform="translate(60.5, 0)"></line><line class="verticalGrid" y1="70" y2="330" stroke="#444" stroke-width="1.0" opacity="1" x1="390" x2="390" transform="translate(60.5, 0)"></line><line class="verticalGrid" y1="70" y2="330" stroke="#444" stroke-width="1.0" opacity="1" x1="450" x2="450" transform="translate(60.5, 0)"></line><text class="axisLabel" fill="black" transform="translate(24, 200) rotate(-90)" text-anchor="middle" style="font-size: 15px; font-weight: 300;">ylabel</text><text class="axisLabel" fill="black" transform="translate(585, 200) rotate(-90)" text-anchor="middle"></text><text class="axisLabel" fill="black" x="300" y="375.5" text-anchor="middle" style="font-size: 15px; font-weight: 300;">2020-02-05  --  2020-02-19</text><path class="series" transform="translate(60, 70)" d="M30,130.8729741523499L60,115.97032641730044L90,132.3111072459873L120,125.94242715499198L150,112.85505834953344L180,124.70901456165237L210,108.56424347173885L240,98.12849730047753L270,111.14510987204528L300,121.1399754756404L330,118.8850956845391L360,122.52381223795075L390,109.2893005299083L420,116.5456791514365L450,113.26325970691698" stroke="rgb(110, 64, 170)" stroke-width="2" fill="none"></path><path class="series" transform="translate(60, 70)" d="M30,130.8729741523499L60,141.78677393122018L90,143.20211723136265L120,150.65889398421706L150,165.1479971407718L180,152.09136195481852L210,142.64307725289694L240,150.5030907163275L270,158.3875412137428L300,154.8259318871277L330,163.8380113113189L360,171.4462785357333L390,158.4349310239627L420,163.28296957621376L450,165.93946797466026" stroke="rgb(255, 140, 56)" stroke-width="2" fill="none"></path><path class="series" transform="translate(60, 70)" d="M30,130.8729741523499L60,112.90157731445612L90,97.96712391074743L120,92.50098608671732L150,103.65786087123118L180,96.24685454492479L210,111.14803870704912L240,118.36910678232016L270,121.09047039099394L300,133.06296778804625L330,118.60376349426966L360,108.54109892533776L390,117.16855940497067L420,105.93897101148096L450,104.92616789701773" stroke="rgb(40, 234, 141)" stroke-width="2" fill="none"></path></svg>
